<svg width="219" height="219" viewBox="0 0 219 219" fill="none" xmlns="http://www.w3.org/2000/svg">
    <circle cx="109.5" cy="109.5" r="109.5" fill="#111111"/>
    <path d="M3.01838 118V105.448C3.01838 104.52 3.22638 103.672 3.64238 102.904C4.07438 102.12 4.69038 101.496 5.49038 101.032C6.30638 100.552 7.27438 100.312 8.39438 100.312V103.6C7.86638 103.6 7.45038 103.768 7.14638 104.104C6.84238 104.44 6.69038 104.848 6.69038 105.328V118H3.01838ZM0.450375 109.456V106.336H11.9944V109.456H0.450375ZM10.4104 118V100.576H14.0824V118H10.4104ZM16.671 118V106.336H20.343V118H16.671ZM18.519 104.728C17.943 104.728 17.463 104.536 17.079 104.152C16.711 103.752 16.527 103.272 16.527 102.712C16.527 102.136 16.711 101.656 17.079 101.272C17.463 100.888 17.943 100.696 18.519 100.696C19.095 100.696 19.567 100.888 19.935 101.272C20.303 101.656 20.487 102.136 20.487 102.712C20.487 103.272 20.303 103.752 19.935 104.152C19.567 104.536 19.095 104.728 18.519 104.728ZM27.8728 123.232C26.5928 123.232 25.4648 123.008 24.4888 122.56C23.5288 122.128 22.7688 121.512 22.2088 120.712L24.4648 118.456C24.8808 118.952 25.3448 119.328 25.8568 119.584C26.3848 119.84 27.0168 119.968 27.7528 119.968C28.6648 119.968 29.3768 119.744 29.8888 119.296C30.4168 118.848 30.6808 118.216 30.6808 117.4V114.424L31.3048 111.88L30.7528 109.336V106.336H34.3528V117.304C34.3528 118.504 34.0728 119.544 33.5128 120.424C32.9528 121.304 32.1848 121.992 31.2088 122.488C30.2328 122.984 29.1208 123.232 27.8728 123.232ZM27.7048 117.64C26.6328 117.64 25.6808 117.384 24.8488 116.872C24.0168 116.36 23.3608 115.664 22.8808 114.784C22.4008 113.904 22.1608 112.928 22.1608 111.856C22.1608 110.768 22.4008 109.792 22.8808 108.928C23.3608 108.048 24.0168 107.36 24.8488 106.864C25.6808 106.352 26.6328 106.096 27.7048 106.096C28.5048 106.096 29.2168 106.248 29.8408 106.552C30.4808 106.84 30.9928 107.256 31.3768 107.8C31.7768 108.328 32.0008 108.944 32.0488 109.648V114.088C32.0008 114.776 31.7768 115.392 31.3768 115.936C30.9928 116.464 30.4808 116.88 29.8408 117.184C29.2008 117.488 28.4888 117.64 27.7048 117.64ZM28.4008 114.376C28.9128 114.376 29.3528 114.264 29.7208 114.04C30.1048 113.816 30.3928 113.52 30.5848 113.152C30.7928 112.768 30.8968 112.336 30.8968 111.856C30.8968 111.376 30.7928 110.944 30.5848 110.56C30.3928 110.176 30.1048 109.872 29.7208 109.648C29.3528 109.424 28.9128 109.312 28.4008 109.312C27.9048 109.312 27.4648 109.424 27.0808 109.648C26.6968 109.872 26.4008 110.176 26.1928 110.56C25.9848 110.944 25.8808 111.376 25.8808 111.856C25.8808 112.304 25.9848 112.728 26.1928 113.128C26.4008 113.512 26.6888 113.816 27.0568 114.04C27.4408 114.264 27.8888 114.376 28.4008 114.376ZM44.6484 118V111.352C44.6484 110.744 44.4564 110.256 44.0724 109.888C43.7044 109.504 43.2324 109.312 42.6564 109.312C42.2564 109.312 41.9044 109.4 41.6004 109.576C41.2964 109.736 41.0564 109.976 40.8804 110.296C40.7044 110.6 40.6164 110.952 40.6164 111.352L39.2004 110.656C39.2004 109.744 39.3924 108.944 39.7764 108.256C40.1604 107.568 40.6964 107.04 41.3844 106.672C42.0724 106.288 42.8644 106.096 43.7604 106.096C44.6724 106.096 45.4724 106.288 46.1604 106.672C46.8484 107.04 47.3764 107.56 47.7444 108.232C48.1284 108.888 48.3204 109.656 48.3204 110.536V118H44.6484ZM36.9444 118V100.576H40.6164V118H36.9444ZM52.1942 118V101.512H55.8662V118H52.1942ZM49.5542 109.456V106.336H58.5062V109.456H49.5542Z" fill="white"/>
    <path d="M65.7401 118L59.2121 101.056H63.2441L68.2121 114.76H66.5561L71.5961 101.056H75.5801L68.9801 118H65.7401ZM74.1413 118L80.8613 101.056H84.2693L90.9173 118H86.9333L81.8453 103.936H83.2133L78.0533 118H74.1413ZM77.9573 114.928V111.856H87.1973V114.928H77.9573ZM99.8361 118.264C98.5721 118.264 97.3961 118.048 96.3081 117.616C95.2361 117.168 94.2921 116.544 93.4761 115.744C92.6761 114.944 92.0521 114.016 91.6041 112.96C91.1561 111.888 90.9321 110.736 90.9321 109.504C90.9321 108.272 91.1561 107.128 91.6041 106.072C92.0521 105 92.6761 104.072 93.4761 103.288C94.2761 102.504 95.2121 101.896 96.2841 101.464C97.3721 101.016 98.5481 100.792 99.8121 100.792C101.156 100.792 102.348 101.008 103.388 101.44C104.444 101.872 105.364 102.464 106.148 103.216L103.628 105.76C103.18 105.28 102.636 104.904 101.996 104.632C101.372 104.36 100.644 104.224 99.8121 104.224C99.0761 104.224 98.3961 104.352 97.7721 104.608C97.1641 104.848 96.6361 105.2 96.1881 105.664C95.7561 106.128 95.4121 106.688 95.1561 107.344C94.9161 108 94.7961 108.72 94.7961 109.504C94.7961 110.304 94.9161 111.032 95.1561 111.688C95.4121 112.344 95.7561 112.904 96.1881 113.368C96.6361 113.832 97.1641 114.192 97.7721 114.448C98.3961 114.704 99.0761 114.832 99.8121 114.832C100.676 114.832 101.428 114.696 102.068 114.424C102.708 114.152 103.26 113.776 103.724 113.296L106.268 115.84C105.452 116.592 104.516 117.184 103.46 117.616C102.42 118.048 101.212 118.264 99.8361 118.264ZM106.649 118L113.369 101.056H116.777L123.425 118H119.441L114.353 103.936H115.721L110.561 118H106.649ZM110.465 114.928V111.856H119.705V114.928H110.465ZM127.472 118V101.296H131.24V118H127.472ZM122.168 104.344V101.056H136.544V104.344H122.168ZM138.648 118V101.056H142.416V118H138.648ZM153.767 118.288C152.487 118.288 151.303 118.064 150.215 117.616C149.143 117.168 148.199 116.544 147.383 115.744C146.567 114.944 145.935 114.016 145.487 112.96C145.039 111.888 144.815 110.736 144.815 109.504C144.815 108.256 145.039 107.104 145.487 106.048C145.935 104.992 146.559 104.072 147.359 103.288C148.159 102.488 149.095 101.872 150.167 101.44C151.255 100.992 152.439 100.768 153.719 100.768C154.983 100.768 156.151 100.992 157.223 101.44C158.311 101.872 159.255 102.488 160.055 103.288C160.871 104.072 161.503 105 161.951 106.072C162.399 107.128 162.623 108.28 162.623 109.528C162.623 110.76 162.399 111.912 161.951 112.984C161.503 114.04 160.879 114.968 160.079 115.768C159.279 116.552 158.335 117.168 157.247 117.616C156.175 118.064 155.015 118.288 153.767 118.288ZM153.719 114.856C154.727 114.856 155.607 114.632 156.359 114.184C157.127 113.736 157.719 113.112 158.135 112.312C158.551 111.496 158.759 110.56 158.759 109.504C158.759 108.704 158.639 107.984 158.399 107.344C158.159 106.688 157.815 106.128 157.367 105.664C156.919 105.184 156.383 104.824 155.759 104.584C155.151 104.328 154.471 104.2 153.719 104.2C152.711 104.2 151.823 104.424 151.055 104.872C150.303 105.304 149.719 105.92 149.303 106.72C148.887 107.504 148.679 108.432 148.679 109.504C148.679 110.304 148.799 111.032 149.039 111.688C149.279 112.344 149.615 112.912 150.047 113.392C150.495 113.856 151.031 114.216 151.655 114.472C152.279 114.728 152.967 114.856 153.719 114.856ZM165.015 118V101.056H167.655L168.783 104.44V118H165.015ZM176.703 118L166.719 105.208L167.655 101.056L177.639 113.848L176.703 118ZM176.703 118L175.695 114.616V101.056H179.463V118H176.703ZM187.493 118.264C186.101 118.264 184.901 118.04 183.893 117.592C182.901 117.128 181.989 116.432 181.157 115.504L183.605 113.08C184.149 113.704 184.749 114.192 185.405 114.544C186.077 114.88 186.853 115.048 187.733 115.048C188.533 115.048 189.149 114.904 189.581 114.616C190.029 114.328 190.253 113.928 190.253 113.416C190.253 112.952 190.109 112.576 189.821 112.288C189.533 112 189.149 111.752 188.669 111.544C188.205 111.336 187.685 111.136 187.109 110.944C186.549 110.752 185.989 110.536 185.429 110.296C184.869 110.04 184.349 109.728 183.869 109.36C183.405 108.976 183.029 108.504 182.741 107.944C182.453 107.368 182.309 106.648 182.309 105.784C182.309 104.744 182.557 103.848 183.053 103.096C183.565 102.344 184.269 101.776 185.165 101.392C186.061 100.992 187.093 100.792 188.261 100.792C189.445 100.792 190.525 101 191.501 101.416C192.493 101.832 193.309 102.4 193.949 103.12L191.501 105.544C190.989 105.016 190.469 104.624 189.941 104.368C189.429 104.112 188.845 103.984 188.189 103.984C187.533 103.984 187.013 104.112 186.629 104.368C186.245 104.608 186.053 104.96 186.053 105.424C186.053 105.856 186.197 106.208 186.485 106.48C186.773 106.736 187.149 106.96 187.613 107.152C188.093 107.344 188.613 107.536 189.173 107.728C189.749 107.92 190.317 108.144 190.877 108.4C191.437 108.656 191.949 108.984 192.413 109.384C192.893 109.768 193.277 110.264 193.565 110.872C193.853 111.464 193.997 112.2 193.997 113.08C193.997 114.696 193.421 115.968 192.269 116.896C191.117 117.808 189.525 118.264 187.493 118.264Z" fill="#0077ED"/>
    <path d="M210 119L209.445 119.832C209.752 120.037 210.147 120.056 210.472 119.882C210.797 119.708 211 119.369 211 119H210ZM207 117L207.555 116.168C207.219 115.944 206.781 115.944 206.445 116.168L207 117ZM204 119H203C203 119.369 203.203 119.708 203.528 119.882C203.853 120.056 204.248 120.037 204.555 119.832L204 119ZM203.751 100.537L203.671 101.534L203.751 100.537ZM205.435 99.8399L204.673 99.1918L204.673 99.1918L205.435 99.8399ZM201.532 102.686L200.535 102.767L201.532 102.686ZM203.686 100.532L203.767 99.5353L203.686 100.532ZM200.84 104.435L201.488 105.196L201.488 105.196L200.84 104.435ZM201.537 102.751L202.534 102.671L201.537 102.751ZM200.79 107.523L200.142 108.285L200.142 108.285L200.79 107.523ZM200.79 104.477L200.142 103.715L200.142 103.715L200.79 104.477ZM201.537 109.249L200.541 109.169L200.541 109.169L201.537 109.249ZM200.84 107.566L201.488 106.804L201.488 106.804L200.84 107.566ZM203.686 111.468L203.767 112.465L203.767 112.465L203.686 111.468ZM201.532 109.314L202.529 109.394L202.529 109.394L201.532 109.314ZM205.435 112.161L206.196 111.513L206.196 111.512L205.435 112.161ZM203.751 111.463L203.671 110.466L203.671 110.466L203.751 111.463ZM208.523 112.21L209.285 112.858L209.285 112.858L208.523 112.21ZM205.477 112.21L204.715 112.858L204.715 112.858L205.477 112.21ZM210.249 111.463L210.33 110.466L210.33 110.466L210.249 111.463ZM208.566 112.161L207.804 111.513L207.804 111.513L208.566 112.161ZM212.468 109.314L213.465 109.234L213.465 109.234L212.468 109.314ZM210.314 111.468L210.234 112.465L210.234 112.465L210.314 111.468ZM213.161 107.566L213.809 108.327L213.809 108.327L213.161 107.566ZM212.463 109.249L211.466 109.33L211.466 109.33L212.463 109.249ZM213.21 104.477L213.858 103.715L213.858 103.715L213.21 104.477ZM213.21 107.523L212.562 106.762L212.562 106.762L213.21 107.523ZM212.463 102.751L211.466 102.671L211.466 102.671L212.463 102.751ZM213.161 104.435L212.513 105.196L212.513 105.196L213.161 104.435ZM210.314 100.532L210.234 99.5353L210.234 99.5353L210.314 100.532ZM212.468 102.686L213.465 102.767L213.465 102.767L212.468 102.686ZM208.566 99.8399L209.327 99.1918L209.327 99.1918L208.566 99.8399ZM210.249 100.537L210.33 101.534L210.33 101.534L210.249 100.537ZM208.523 99.7903L207.762 100.438L207.762 100.438L208.523 99.7903ZM205.477 99.7903L206.239 100.438L206.239 100.438L205.477 99.7903ZM204 111.459L204.044 110.46L204 111.459ZM210.555 118.168L207.555 116.168L206.445 117.832L209.445 119.832L210.555 118.168ZM206.445 116.168L203.445 118.168L204.555 119.832L207.555 117.832L206.445 116.168ZM207.762 100.438L207.804 100.488L209.327 99.1918L209.285 99.1423L207.762 100.438ZM210.33 101.534L210.394 101.529L210.234 99.5353L210.169 99.5405L210.33 101.534ZM211.472 102.606L211.466 102.671L213.46 102.831L213.465 102.767L211.472 102.606ZM212.513 105.196L212.562 105.239L213.858 103.715L213.809 103.673L212.513 105.196ZM212.562 106.762L212.512 106.804L213.809 108.327L213.858 108.285L212.562 106.762ZM211.466 109.33L211.472 109.394L213.465 109.234L213.46 109.169L211.466 109.33ZM210.394 110.472L210.33 110.466L210.169 112.46L210.234 112.465L210.394 110.472ZM207.804 111.513L207.762 111.562L209.285 112.858L209.327 112.809L207.804 111.513ZM206.239 111.562L206.196 111.513L204.673 112.809L204.715 112.858L206.239 111.562ZM203.671 110.466L203.606 110.472L203.767 112.465L203.831 112.46L203.671 110.466ZM202.529 109.394L202.534 109.33L200.541 109.169L200.535 109.234L202.529 109.394ZM201.488 106.804L201.438 106.762L200.142 108.285L200.192 108.327L201.488 106.804ZM201.438 105.239L201.488 105.196L200.192 103.673L200.142 103.715L201.438 105.239ZM202.534 102.671L202.529 102.606L200.535 102.767L200.541 102.831L202.534 102.671ZM203.606 101.529L203.671 101.534L203.831 99.5405L203.767 99.5353L203.606 101.529ZM206.196 100.488L206.239 100.438L204.715 99.1423L204.673 99.1918L206.196 100.488ZM203.671 101.534C204.632 101.612 205.572 101.222 206.196 100.488L204.673 99.1918C204.465 99.4366 204.152 99.5664 203.831 99.5405L203.671 101.534ZM202.529 102.606C202.479 101.992 202.992 101.479 203.606 101.529L203.767 99.5353C201.924 99.3869 200.387 100.924 200.535 102.767L202.529 102.606ZM201.488 105.196C202.222 104.572 202.612 103.632 202.534 102.671L200.541 102.831C200.566 103.152 200.437 103.465 200.192 103.673L201.488 105.196ZM201.438 106.762C200.969 106.363 200.969 105.638 201.438 105.239L200.142 103.715C198.734 104.913 198.734 107.087 200.142 108.285L201.438 106.762ZM202.534 109.33C202.612 108.369 202.222 107.429 201.488 106.804L200.192 108.327C200.437 108.535 200.566 108.849 200.541 109.169L202.534 109.33ZM203.606 110.472C202.992 110.521 202.479 110.009 202.529 109.394L200.535 109.234C200.387 111.076 201.924 112.614 203.767 112.465L203.606 110.472ZM207.762 111.562C207.363 112.031 206.638 112.031 206.239 111.562L204.715 112.858C205.913 114.266 208.087 114.266 209.285 112.858L207.762 111.562ZM211.472 109.394C211.521 110.009 211.009 110.521 210.394 110.472L210.234 112.465C212.076 112.614 213.614 111.076 213.465 109.234L211.472 109.394ZM212.512 106.804C211.778 107.429 211.389 108.369 211.466 109.33L213.46 109.169C213.434 108.849 213.564 108.535 213.809 108.327L212.512 106.804ZM212.562 105.239C213.031 105.638 213.031 106.362 212.562 106.762L213.858 108.285C215.266 107.087 215.266 104.913 213.858 103.715L212.562 105.239ZM211.466 102.671C211.389 103.632 211.778 104.572 212.513 105.196L213.809 103.673C213.564 103.465 213.434 103.152 213.46 102.831L211.466 102.671ZM210.394 101.529C211.009 101.479 211.521 101.992 211.472 102.606L213.465 102.767C213.614 100.924 212.076 99.3869 210.234 99.5353L210.394 101.529ZM207.804 100.488C208.429 101.222 209.369 101.612 210.33 101.534L210.169 99.5405C209.849 99.5664 209.535 99.4366 209.327 99.1918L207.804 100.488ZM209.285 99.1423C208.087 97.7345 205.913 97.7345 204.715 99.1423L206.239 100.438C206.638 99.9691 207.362 99.9691 207.762 100.438L209.285 99.1423ZM206.196 111.512C205.653 110.874 204.871 110.496 204.044 110.46L203.956 112.458C204.232 112.47 204.492 112.596 204.673 112.809L206.196 111.512ZM204.044 110.46C203.921 110.454 203.796 110.456 203.671 110.466L203.831 112.46C203.873 112.456 203.915 112.456 203.956 112.458L204.044 110.46ZM205 119V111.459H203V119H205ZM210.33 110.466C210.205 110.456 210.08 110.454 209.956 110.46L210.044 112.458C210.086 112.456 210.127 112.456 210.169 112.46L210.33 110.466ZM209.956 110.46C209.129 110.496 208.347 110.874 207.804 111.513L209.327 112.809C209.508 112.596 209.769 112.47 210.044 112.458L209.956 110.46ZM209 111.459V119H211V111.459H209Z" fill="#0077ED"/>
    <path d="M209 105L206 108L205 107" stroke="#0077ED" stroke-width="2" stroke-linecap="round" stroke-linejoin="round"/>
</svg>